<svg xmlns="http://www.w3.org/2000/svg" viewBox="0 0 32 32">
  <rect width="32" height="32" rx="7" fill="#84cc16" />
  <!-- Side-view lizard silhouette -->
  <path
    fill="#000000"
    d="M5.2 17.5c.5-2.8 2.5-5 5.3-5.5 1.4-.2 2.8.1 4 1 1 .8 1.6 1.9 1.8 3.1.2-.7.7-1.2 1.4-1.5 1-.4 2.1-.1 2.9.6.4.4.7.9.8 1.5.1-.4.4-.7.8-.9.8-.4 1.7-.2 2.3.4.4.4.6 1 .6 1.6 0 .6-.3 1.1-.8 1.4-.5.4-1.2.5-1.8.2-.1.4-.4.8-.8 1.1-.7.6-1.7.6-2.5.1-.4-.2-.7-.5-.9-.9-.4.8-1.1 1.4-2 1.6-.9.2-1.8 0-2.5-.5-.3.4-.8.7-1.3.9-1 .3-2.1 0-2.8-.7-.4.3-.9.5-1.4.6-1.3.2-2.6-.5-3.2-1.7-.4.3-.9.5-1.4.6-1.4.2-2.8-.8-3.3-2.2zm16.3-5.2c.4 0 .8.2 1.1.5.7.7.7 1.8 0 2.5-.3.3-.8.5-1.3.4-.5-.1-.9-.4-1.1-.9-.2-.8.3-1.6 1.1-1.8.1-.1.2-.2.2-.3z"
  />
</svg>
